<?xml version="1.0" encoding="UTF-8"?>
<svg viewBox="0 0 512 512" xmlns="http://www.w3.org/2000/svg">

  <defs>
    <linearGradient id="shieldGradient" x1="0%" y1="0%" x2="100%" y2="100%">
      <stop offset="0%" stop-color="#1f5f8b"/>
      <stop offset="100%" stop-color="#6fd36f"/>
    </linearGradient>
  </defs>

  <!-- Shield Background -->
  <path d="M256 60
           L400 110
           L400 250
           C400 350 330 420 256 460
           C182 420 112 350 112 250
           L112 110 Z"
        fill="url(#shieldGradient)" />

  <!-- Inner Border -->
  <path d="M256 90
           L370 130
           L370 245
           C370 330 315 390 256 420
           C197 390 142 330 142 245
           L142 130 Z"
        fill="none"
        stroke="white"
        stroke-width="18"
        stroke-linejoin="round"/>

  <!-- Curved Arrow -->
  <path d="M210 330
           C190 270 220 210 256 190
           L256 240"
        fill="none"
        stroke="#555555"
        stroke-width="30"
        stroke-linecap="round"/>

  <!-- Arrow Head -->
  <polygon points="256,160 300,210 212,210"
           fill="#555555"/>

</svg>
